<svg id="logosandtypes_com" data-name="logosandtypes com" xmlns="http://www.w3.org/2000/svg" viewBox="0 0 150 150"><defs><style>.cls-1{fill:none;}.cls-2{fill:#f61cb3;}.cls-2,.cls-3,.cls-4,.cls-6{fill-rule:evenodd;}.cls-3{fill:#ff9231;}.cls-4{fill:#f35512;}.cls-5{fill:#9f3428;}.cls-6{fill:#fff;}</style></defs><path class="cls-1" d="M0,0H150V150H0Z" transform="translate(0 0)"/><path class="cls-2" d="M45.38,66.44C41,86.85,26.84,124.9,12.59,119.26c-22.85-8.36,21.09-93,32.27-92.34C51.54,26.59,49.94,45.82,45.38,66.44Z" transform="translate(0 0)"/><path class="cls-3" d="M69.38,57.66c9.8,18.42,23.37,56.7,8.83,61.54-22.88,8.28-43.6-84.77-34.63-91.48C48.49,23.17,59.61,38.93,69.38,57.66Z" transform="translate(0 0)"/><path class="cls-4" d="M105.57,66.44C101.23,86.85,87,124.9,72.77,119.26c-22.85-8.36,21.09-93,32.28-92.34C111.73,26.59,110.12,45.82,105.57,66.44Z" transform="translate(0 0)"/><path class="cls-2" d="M129.15,57.66c9.8,18.42,23.37,56.7,8.84,61.54-22.89,8.28-43.61-84.77-34.64-91.48C108.26,23.17,119.38,38.93,129.15,57.66Z" transform="translate(0 0)"/><path class="cls-5" d="M7.22,96.33c10.5-34.36,30.16-64,37.6-64.51,6.1-.45,18.39,16.47,30.55,39.28,12.56-22,21.92-39,29.63-39.28,6.54-.27,24.65,26.9,37,64.51-1.07-23.09-24.39-68.51-36.29-70C95.78,25,85.39,49,75.37,70.57c-9.64-22.87-22.92-45-29.93-44.78C34.41,26.18,2.05,89.19,7.22,96.33Z" transform="translate(0 0)"/><path class="cls-6" d="M148.36,102.79c-1.38-23-28.53-80.05-43.45-80-8.51,0-24.21,26.75-29.37,38.58C70.74,49.94,54,22.75,45.3,22.75,38,22.75,27.07,39.2,21,49.94c-11.55,20.41-34.24,70.21-5.84,74C28,125.64,40.28,99.06,45.45,82c12.58,48.11,41,62.64,60.05.55,7.6,23.39,18,46.49,33.88,40.51C144.21,121.24,149.16,116,148.36,102.79ZM138,119.2c-13.45,4.87-26.15-25.27-32.52-52.3C89.24,135.12,62,137.48,45.48,66,41.22,86.37,27,124.92,12.59,119.26c-22.74-8.33,21-93.8,32.78-92.32C52.69,26,69.79,56.3,75.6,71,85.45,48.17,99,27.11,105.46,27,115.5,26.93,159.05,109.26,138,119.2Z" transform="translate(0 0)"/></svg>