<svg width="20" height="20" viewBox="0 0 20 20" fill="none" xmlns="http://www.w3.org/2000/svg"><path d="M13.233 7.74822L7.74833 13.2328C7.61729 13.3594 7.44179 13.4294 7.25961 13.4278C7.07744 13.4263 6.90318 13.3532 6.77436 13.2244C6.64554 13.0955 6.57247 12.9213 6.57089 12.7391C6.5693 12.5569 6.63934 12.3814 6.7659 12.2504L12.2506 6.7658C12.3816 6.63924 12.5571 6.56921 12.7393 6.5708C12.9215 6.57238 13.0957 6.64545 13.2246 6.77427C13.3534 6.90308 13.4264 7.07734 13.428 7.25951C13.4296 7.44168 13.3596 7.61719 13.233 7.74822ZM8.08739 8.08728C8.23891 7.93594 8.34214 7.74307 8.38401 7.53305C8.42589 7.32304 8.40453 7.10532 8.32264 6.90745C8.24074 6.70958 8.102 6.54044 7.92396 6.42144C7.74592 6.30244 7.53658 6.23892 7.32242 6.23892C7.10827 6.23892 6.89893 6.30244 6.72089 6.42144C6.54285 6.54044 6.40411 6.70958 6.32221 6.90745C6.24032 7.10532 6.21896 7.32304 6.26084 7.53305C6.30271 7.74307 6.40594 7.93594 6.55746 8.08728C6.76043 8.28999 7.03556 8.40386 7.32242 8.40386C7.60929 8.40386 7.88442 8.28999 8.08739 8.08728ZM11.9115 11.91C11.76 12.0613 11.6568 12.2542 11.6149 12.4642C11.573 12.6742 11.5944 12.8919 11.6763 13.0898C11.7582 13.2877 11.8969 13.4568 12.075 13.5758C12.253 13.6948 12.4623 13.7583 12.6765 13.7583C12.8906 13.7583 13.1 13.6948 13.278 13.5758C13.4561 13.4568 13.5948 13.2877 13.6767 13.0898C13.7586 12.8919 13.7799 12.6742 13.7381 12.4642C13.6962 12.2542 13.593 12.0613 13.4415 11.91C13.2385 11.7072 12.9634 11.5934 12.6765 11.5934C12.3896 11.5934 12.1145 11.7072 11.9115 11.91ZM19.9725 11.5765C19.9173 11.9425 19.7646 12.2868 19.5303 12.5734C19.2961 12.86 18.989 13.0781 18.6413 13.205L17.2836 13.7108L17.6727 15.106C17.7716 15.4617 17.7743 15.8373 17.6804 16.1943C17.5865 16.5514 17.3995 16.8771 17.1384 17.1382C16.8773 17.3992 16.5516 17.5863 16.1945 17.6801C15.8375 17.774 15.4619 17.7714 15.1062 17.6725L13.711 17.2834L13.2066 18.641C13.0798 18.9885 12.8618 19.2955 12.5755 19.5297C12.2892 19.7639 11.9452 19.9168 11.5794 19.9722C11.4682 19.9901 11.3558 19.9994 11.2431 20C10.9297 20.0004 10.6204 19.9292 10.3386 19.792C10.0569 19.6547 9.81018 19.455 9.61732 19.2079L8.71965 18.0727L7.51627 18.8731C7.20837 19.078 6.85147 19.1974 6.4822 19.2189C6.11292 19.2404 5.74459 19.1632 5.415 18.9953C5.08541 18.8274 4.80644 18.5748 4.60672 18.2635C4.407 17.9521 4.29374 17.5932 4.27855 17.2237L4.22018 15.7785L2.77502 15.7201C2.40543 15.705 2.04655 15.5917 1.7352 15.392C1.42386 15.1923 1.17127 14.9133 1.00336 14.5837C0.835454 14.2541 0.758279 13.8858 0.779758 13.5165C0.801237 13.1473 0.920596 12.7904 1.12558 12.4825L1.92598 11.2791L0.790694 10.3801C0.500834 10.1506 0.277212 9.84821 0.142755 9.50385C0.0082985 9.1595 -0.0321539 8.78558 0.025546 8.42043C0.0832458 8.05529 0.237022 7.71206 0.471106 7.42593C0.705191 7.13981 1.01116 6.92109 1.35764 6.7922L2.71527 6.28779L2.32618 4.89267C2.22697 4.53688 2.22408 4.16111 2.31782 3.80383C2.41157 3.44656 2.59857 3.12061 2.85968 2.85935C3.1208 2.5981 3.44665 2.41093 3.80388 2.31699C4.16111 2.22306 4.53689 2.22574 4.89274 2.32476L6.28788 2.71384L6.7923 1.35762C6.92119 1.01115 7.13991 0.705181 7.42604 0.4711C7.71216 0.237019 8.0554 0.0832447 8.42055 0.0255456C8.7857 -0.0321535 9.15963 0.00829838 9.50399 0.142753C9.84835 0.277208 10.1508 0.500827 10.3802 0.790683L11.2793 1.92596L12.4826 1.12557C12.7905 0.920583 13.1474 0.801226 13.5167 0.779747C13.886 0.758268 14.2543 0.835442 14.5839 1.00335C14.9135 1.17125 15.1925 1.42384 15.3922 1.73518C15.5919 2.04652 15.7052 2.4054 15.7204 2.77498L15.7787 4.22012L17.2239 4.27849C17.5935 4.29368 17.9524 4.40694 18.2637 4.60665C18.5751 4.80637 18.8276 5.08534 18.9956 5.41492C19.1635 5.74451 19.2406 6.11284 19.2192 6.4821C19.1977 6.85137 19.0783 7.20827 18.8733 7.51617L18.0729 8.71814L19.2082 9.61719C19.4998 9.84506 19.7246 10.1472 19.8591 10.492C19.9936 10.8367 20.0328 11.2114 19.9725 11.5765ZM18.3467 10.708L16.7084 9.41153C16.5716 9.30332 16.4806 9.14767 16.4533 8.97546C16.426 8.80325 16.4645 8.62708 16.5611 8.48191L17.7158 6.74635C17.7842 6.64377 17.8241 6.52484 17.8314 6.40176C17.8386 6.27868 17.813 6.15588 17.7571 6.04597C17.7013 5.93607 17.6172 5.84301 17.5134 5.77635C17.4097 5.70969 17.2901 5.67183 17.1669 5.66666L15.0825 5.5819C14.9081 5.5747 14.7427 5.50207 14.6194 5.37848C14.4961 5.25488 14.4238 5.08938 14.4169 4.91491L14.3308 2.83056C14.3254 2.70749 14.2874 2.58807 14.2206 2.48454C14.1538 2.38101 14.0608 2.29709 13.9509 2.24138C13.841 2.18567 13.7183 2.16017 13.5953 2.16749C13.4724 2.17482 13.3536 2.21471 13.2511 2.28307L11.5169 3.43641C11.3719 3.53386 11.1954 3.57297 11.0228 3.54592C10.8502 3.51887 10.6941 3.42765 10.5859 3.29051L9.29077 1.6536C9.21424 1.55722 9.11349 1.48289 8.99882 1.43822C8.88414 1.39355 8.75966 1.38014 8.6381 1.39936C8.51654 1.41859 8.40227 1.46975 8.30697 1.54763C8.21168 1.6255 8.13878 1.72729 8.09573 1.84258L7.36759 3.7977C7.3076 3.96147 7.18787 4.09648 7.03244 4.17561C6.87701 4.25474 6.69739 4.27213 6.52967 4.22429L4.52033 3.66291C4.4016 3.62948 4.2761 3.62827 4.15674 3.6594C4.03738 3.69052 3.92846 3.75286 3.84117 3.84001C3.75388 3.92716 3.69136 4.03598 3.66004 4.15529C3.62872 4.2746 3.62973 4.40009 3.66296 4.51888L4.22435 6.52958C4.27118 6.69729 4.25333 6.87648 4.17432 7.03165C4.09532 7.18683 3.96092 7.30668 3.79775 7.36748L1.84261 8.09561C1.72731 8.13866 1.62552 8.21156 1.54765 8.30686C1.46977 8.40215 1.41861 8.51642 1.39938 8.63798C1.38016 8.75953 1.39357 8.88402 1.43824 8.99869C1.48291 9.11336 1.55724 9.21411 1.65362 9.29064L3.29055 10.5871C3.42727 10.6953 3.51831 10.851 3.5456 11.0232C3.57288 11.1954 3.53442 11.3715 3.43785 11.5167L2.28311 13.2523C2.21505 13.3548 2.17546 13.4736 2.16838 13.5965C2.1613 13.7194 2.187 13.8419 2.24283 13.9516C2.29867 14.0613 2.38264 14.1542 2.48616 14.2208C2.58967 14.2874 2.70902 14.3253 2.83199 14.3306L4.91636 14.4167C5.0906 14.4239 5.25576 14.4963 5.37906 14.6196C5.50237 14.7429 5.5748 14.9081 5.58197 15.0823L5.66813 17.1667C5.6733 17.2899 5.71116 17.4095 5.77782 17.5132C5.84448 17.6169 5.93754 17.701 6.04745 17.7569C6.15736 17.8128 6.28016 17.8384 6.40324 17.8311C6.52633 17.8239 6.64526 17.784 6.74783 17.7156L8.48203 16.5622C8.62716 16.4651 8.80353 16.4262 8.97606 16.4532C9.14858 16.4802 9.3046 16.5713 9.41305 16.7081L10.7081 18.345C10.7847 18.4414 10.8854 18.5157 11.0001 18.5604C11.1148 18.6051 11.2393 18.6185 11.3608 18.5993C11.4824 18.58 11.5966 18.5289 11.6919 18.451C11.7872 18.3731 11.8601 18.2713 11.9032 18.156L12.6313 16.2009C12.6921 16.0378 12.812 15.9034 12.9672 15.8244C13.1223 15.7454 13.3015 15.7275 13.4692 15.7743L15.4786 16.3343C15.5974 16.3682 15.7231 16.3695 15.8426 16.3382C15.9621 16.3069 16.0711 16.2442 16.1581 16.1565C16.2463 16.0701 16.3095 15.9614 16.3408 15.842C16.3721 15.7226 16.3704 15.5969 16.336 15.4784L15.7746 13.4677C15.7277 13.2999 15.7456 13.1208 15.8246 12.9656C15.9036 12.8104 16.038 12.6906 16.2012 12.6298L18.1563 11.903C18.2716 11.86 18.3734 11.7871 18.4513 11.6918C18.5291 11.5965 18.5803 11.4822 18.5995 11.3607C18.6188 11.2391 18.6053 11.1146 18.5607 10.9999C18.516 10.8853 18.4431 10.7845 18.3467 10.708Z" fill="#65605A"/></svg>