<svg xmlns="http://www.w3.org/2000/svg" width="15" height="13" viewBox="0 0 15 13" fill="none"><path d="M7.125 12.8826L6.29719 12.1384C5.05394 11.0105 4.02581 10.0413 3.21281 9.23081C2.39981 8.42019 1.75556 7.69875 1.28006 7.0665C0.804563 6.43437 0.472375 5.85769 0.2835 5.33644C0.0945001 4.81531 0 4.2865 0 3.75C0 2.68563 0.358875 1.7945 1.07662 1.07662C1.7945 0.358875 2.68563 0 3.75 0C4.40475 0 5.0235 0.153125 5.60625 0.459375C6.189 0.765625 6.69525 1.20481 7.125 1.77694C7.55475 1.20481 8.061 0.765625 8.64375 0.459375C9.2265 0.153125 9.84525 0 10.5 0C11.5644 0 12.4555 0.358875 13.1734 1.07662C13.8911 1.7945 14.25 2.68563 14.25 3.75C14.25 4.2865 14.1555 4.81531 13.9665 5.33644C13.7776 5.85769 13.4454 6.43437 12.9699 7.0665C12.4944 7.69875 11.8514 8.42019 11.0408 9.23081C10.2303 10.0413 9.20094 11.0105 7.95281 12.1384L7.125 12.8826ZM7.125 11.3625C8.325 10.2828 9.3125 9.35725 10.0875 8.586C10.8625 7.81488 11.475 7.14494 11.925 6.57619C12.375 6.00744 12.6875 5.50237 12.8625 5.061C13.0375 4.61975 13.125 4.18275 13.125 3.75C13.125 3 12.875 2.375 12.375 1.875C11.875 1.375 11.25 1.125 10.5 1.125C9.90775 1.125 9.36038 1.293 8.85787 1.629C8.3555 1.96513 7.95769 2.43269 7.66444 3.03169H6.58556C6.28744 2.42781 5.88838 1.95906 5.38838 1.62544C4.88838 1.29181 4.34225 1.125 3.75 1.125C3.00475 1.125 2.38094 1.375 1.87856 1.875C1.37619 2.375 1.125 3 1.125 3.75C1.125 4.18275 1.2125 4.61975 1.3875 5.061C1.5625 5.50237 1.875 6.00744 2.325 6.57619C2.775 7.14494 3.3875 7.81369 4.1625 8.58244C4.9375 9.35119 5.925 10.2779 7.125 11.3625Z" fill="#646864"/></svg>