<svg xmlns="http://www.w3.org/2000/svg" width="21" height="19" viewBox="0 0 21 19" fill="none"><path d="M10.3 18.9768L8.79625 17.5845C6.98858 15.914 5.51358 14.5009 4.37125 13.3453C3.22892 12.1894 2.33242 11.1775 1.68175 10.3095C1.03108 9.44167 0.588167 8.64775 0.353 7.92775C0.117667 7.20792 0 6.46533 0 5.7C0 4.0975 0.5535 2.74683 1.6605 1.648C2.76767 0.549333 4.13083 0 5.75 0C6.55633 0 7.35633 0.183333 8.15 0.55C8.94367 0.916667 9.66033 1.43975 10.3 2.11925C10.9397 1.43975 11.6563 0.916667 12.45 0.55C13.2437 0.183333 14.0437 0 14.85 0C16.4692 0 17.8323 0.549333 18.9395 1.648C20.0465 2.74683 20.6 4.0975 20.6 5.7C20.6 6.46533 20.4823 7.20792 20.247 7.92775C20.0118 8.64775 19.5689 9.44167 18.9182 10.3095C18.2676 11.1775 17.3727 12.1894 16.2335 13.3453C15.0945 14.5009 13.6179 15.914 11.8038 17.5845L10.3 18.9768ZM10.3 16.05C11.9333 14.5603 13.275 13.293 14.325 12.248C15.375 11.2032 16.2083 10.2933 16.825 9.51825C17.4417 8.74325 17.8667 8.0615 18.1 7.473C18.3333 6.88467 18.45 6.29367 18.45 5.7C18.45 4.68333 18.1125 3.8375 17.4375 3.1625C16.7625 2.4875 15.9 2.15 14.85 2.15C14.0937 2.15 13.3722 2.37817 12.6855 2.8345C11.999 3.291 11.5436 3.84358 11.3193 4.49225H9.28075C9.04992 3.83708 8.59283 3.28292 7.9095 2.82975C7.22617 2.37658 6.50633 2.15 5.75 2.15C4.70633 2.15 3.84542 2.4875 3.16725 3.1625C2.48908 3.8375 2.15 4.68333 2.15 5.7C2.15 6.29367 2.26667 6.88467 2.5 7.473C2.73333 8.0615 3.15833 8.74325 3.775 9.51825C4.39167 10.2933 5.225 11.2016 6.275 12.2433C7.325 13.2849 8.66667 14.5538 10.3 16.05Z" fill="#D5CABD"/></svg>